HIERARCHY
ROOT Hips
{
	OFFSET -49.260769 -43.699543 87.056984
	CHANNELS 6 Xposition Yposition Zposition Zrotation Yrotation Xrotation
	JOINT Spine
	{
		OFFSET 0.000000 2.080109 8.814247
		CHANNELS 6 Xposition Yposition Zposition Zrotation Yrotation Xrotation
		JOINT Spine1
		{
			OFFSET 0.000000 0.000000 8.844139
			CHANNELS 6 Xposition Yposition Zposition Zrotation Yrotation Xrotation
			JOINT Spine2
			{
				OFFSET 0.000000 0.000000 11.682266
				CHANNELS 6 Xposition Yposition Zposition Zrotation Yrotation Xrotation
				JOINT Spine3
				{
					OFFSET 0.000000 0.000004 11.746696
					CHANNELS 6 Xposition Yposition Zposition Zrotation Yrotation Xrotation
					JOINT Neck
					{
						OFFSET 0.000000 0.000000 17.658264
						CHANNELS 6 Xposition Yposition Zposition Zrotation Yrotation Xrotation
						JOINT Neck1
						{
							OFFSET 0.000000 0.000000 5.101517
							CHANNELS 6 Xposition Yposition Zposition Zrotation Yrotation Xrotation
							JOINT Head
							{
								OFFSET 0.000000 0.000000 5.101517
								CHANNELS 6 Xposition Yposition Zposition Zrotation Yrotation Xrotation
								JOINT HeadEnd
								{
									OFFSET 0.000000 0.000000 11.655090
									CHANNELS 6 Xposition Yposition Zposition Zrotation Yrotation Xrotation
									End Site
									{
										OFFSET 0.000000 0.000000 0.100006
									}
								}
							}
						}
					}
					JOINT RightShoulder
					{
						OFFSET -2.625389 0.000000 11.175217
						CHANNELS 6 Xposition Yposition Zposition Zrotation Yrotation Xrotation
						JOINT RightArm
						{
							OFFSET 0.000000 0.000000 10.434723
							CHANNELS 6 Xposition Yposition Zposition Zrotation Yrotation Xrotation
							JOINT RightForeArm
							{
								OFFSET 0.000000 0.000004 29.628418
								CHANNELS 6 Xposition Yposition Zposition Zrotation Yrotation Xrotation
								JOINT RightHand
								{
									OFFSET 0.000000 0.000000 22.857605
									CHANNELS 6 Xposition Yposition Zposition Zrotation Yrotation Xrotation
									JOINT RightHandThumb1
									{
										OFFSET -2.867321 -2.944290 3.959564
										CHANNELS 6 Xposition Yposition Zposition Zrotation Yrotation Xrotation
										JOINT RightHandThumb2
										{
											OFFSET 0.000000 0.000000 3.350403
											CHANNELS 6 Xposition Yposition Zposition Zrotation Yrotation Xrotation
											JOINT RightHandThumb3
											{
												OFFSET 0.000000 0.000000 3.756516
												CHANNELS 6 Xposition Yposition Zposition Zrotation Yrotation Xrotation
												JOINT RightHandThumb4
												{
													OFFSET 0.000000 0.000000 3.147339
													CHANNELS 6 Xposition Yposition Zposition Zrotation Yrotation Xrotation
													End Site
													{
														OFFSET 0.000000 0.000000 0.100006
													}
												}
											}
										}
									}
									JOINT RightHandIndex1
									{
										OFFSET -0.086754 -2.345280 10.030899
										CHANNELS 6 Xposition Yposition Zposition Zrotation Yrotation Xrotation
										JOINT RightHandIndex2
										{
											OFFSET 0.000000 0.000000 4.061096
											CHANNELS 6 Xposition Yposition Zposition Zrotation Yrotation Xrotation
											JOINT RightHandIndex3
											{
												OFFSET 0.000000 0.000000 3.248871
												CHANNELS 6 Xposition Yposition Zposition Zrotation Yrotation Xrotation
												JOINT RightHandIndex4
												{
													OFFSET 0.000000 0.000000 2.639709
													CHANNELS 6 Xposition Yposition Zposition Zrotation Yrotation Xrotation
													End Site
													{
														OFFSET 0.000000 0.000000 0.100006
													}
												}
											}
										}
									}
									JOINT RightHandMiddle1
									{
										OFFSET 0.104103 -0.006767 9.502945
										CHANNELS 6 Xposition Yposition Zposition Zrotation Yrotation Xrotation
										JOINT RightHandMiddle2
										{
											OFFSET 0.000000 0.000000 4.568726
											CHANNELS 6 Xposition Yposition Zposition Zrotation Yrotation Xrotation
											JOINT RightHandMiddle3
											{
												OFFSET 0.000000 0.000000 3.654984
												CHANNELS 6 Xposition Yposition Zposition Zrotation Yrotation Xrotation
												JOINT RightHandMiddle4
												{
													OFFSET 0.000000 0.000000 2.741241
													CHANNELS 6 Xposition Yposition Zposition Zrotation Yrotation Xrotation
													End Site
													{
														OFFSET 0.000000 0.000000 0.100006
													}
												}
											}
										}
									}
									JOINT RightHandRing1
									{
										OFFSET 0.086754 2.267441 8.921707
										CHANNELS 6 Xposition Yposition Zposition Zrotation Yrotation Xrotation
										JOINT RightHandRing2
										{
											OFFSET 0.000000 0.000000 4.061096
											CHANNELS 6 Xposition Yposition Zposition Zrotation Yrotation Xrotation
											JOINT RightHandRing3
											{
												OFFSET 0.000000 0.000000 3.654984
												CHANNELS 6 Xposition Yposition Zposition Zrotation Yrotation Xrotation
												JOINT RightHandRing4
												{
													OFFSET 0.000000 0.000000 2.741241
													CHANNELS 6 Xposition Yposition Zposition Zrotation Yrotation Xrotation
													End Site
													{
														OFFSET 0.000000 0.000000 0.100006
													}
												}
											}
										}
									}
									JOINT RightHandPinky1
									{
										OFFSET -0.173504 4.467197 7.976990
										CHANNELS 6 Xposition Yposition Zposition Zrotation Yrotation Xrotation
										JOINT RightHandPinky2
										{
											OFFSET 0.000000 0.000000 3.350403
											CHANNELS 6 Xposition Yposition Zposition Zrotation Yrotation Xrotation
											JOINT RightHandPinky3
											{
												OFFSET 0.000000 0.000000 2.842758
												CHANNELS 6 Xposition Yposition Zposition Zrotation Yrotation Xrotation
												JOINT RightHandPinky4
												{
													OFFSET 0.000000 0.000000 2.639709
													CHANNELS 6 Xposition Yposition Zposition Zrotation Yrotation Xrotation
													End Site
													{
														OFFSET 0.000000 0.000000 0.100006
													}
												}
											}
										}
									}
									JOINT RightForeArmEnd
									{
										OFFSET 0.000000 0.000000 0.000000
										CHANNELS 6 Xposition Yposition Zposition Zrotation Yrotation Xrotation
										End Site
										{
											OFFSET 0.000000 0.000000 0.100006
										}
									}
								}
								JOINT RightArmEnd
								{
									OFFSET 0.000000 0.000000 0.000000
									CHANNELS 6 Xposition Yposition Zposition Zrotation Yrotation Xrotation
									End Site
									{
										OFFSET 0.000000 0.000000 0.100006
									}
								}
							}
						}
					}
					JOINT LeftShoulder
					{
						OFFSET 2.625389 0.000000 11.175217
						CHANNELS 6 Xposition Yposition Zposition Zrotation Yrotation Xrotation
						JOINT LeftArm
						{
							OFFSET 0.000000 0.000000 10.813629
							CHANNELS 6 Xposition Yposition Zposition Zrotation Yrotation Xrotation
							JOINT LeftForeArm
							{
								OFFSET 0.000000 0.000004 28.724777
								CHANNELS 6 Xposition Yposition Zposition Zrotation Yrotation Xrotation
								JOINT LeftHand
								{
									OFFSET 0.644382 0.328873 25.716171
									CHANNELS 6 Xposition Yposition Zposition Zrotation Yrotation Xrotation
									JOINT LeftHandThumb1
									{
										OFFSET 2.867325 -2.944290 3.959564
										CHANNELS 6 Xposition Yposition Zposition Zrotation Yrotation Xrotation
										JOINT LeftHandThumb2
										{
											OFFSET 0.000000 0.000000 3.350403
											CHANNELS 6 Xposition Yposition Zposition Zrotation Yrotation Xrotation
											JOINT LeftHandThumb3
											{
												OFFSET 0.000000 0.000000 3.756516
												CHANNELS 6 Xposition Yposition Zposition Zrotation Yrotation Xrotation
												JOINT LeftHandThumb4
												{
													OFFSET 0.000000 0.000000 3.100006
													CHANNELS 6 Xposition Yposition Zposition Zrotation Yrotation Xrotation
													End Site
													{
														OFFSET 0.000000 0.000000 0.100006
													}
												}
											}
										}
									}
									JOINT LeftHandIndex1
									{
										OFFSET 0.086754 -2.345280 10.030899
										CHANNELS 6 Xposition Yposition Zposition Zrotation Yrotation Xrotation
										JOINT LeftHandIndex2
										{
											OFFSET 0.000000 0.000000 4.061096
											CHANNELS 6 Xposition Yposition Zposition Zrotation Yrotation Xrotation
											JOINT LeftHandIndex3
											{
												OFFSET 0.000000 0.000000 3.248871
												CHANNELS 6 Xposition Yposition Zposition Zrotation Yrotation Xrotation
												JOINT LeftHandIndex4
												{
													OFFSET 0.000000 0.000000 2.639709
													CHANNELS 6 Xposition Yposition Zposition Zrotation Yrotation Xrotation
													End Site
													{
														OFFSET 0.000000 0.000000 0.100006
													}
												}
											}
										}
									}
									JOINT LeftHandMiddle1
									{
										OFFSET -0.104103 -0.006767 9.502945
										CHANNELS 6 Xposition Yposition Zposition Zrotation Yrotation Xrotation
										JOINT LeftHandMiddle2
										{
											OFFSET 0.000000 0.000000 4.568726
											CHANNELS 6 Xposition Yposition Zposition Zrotation Yrotation Xrotation
											JOINT LeftHandMiddle3
											{
												OFFSET 0.000000 0.000000 3.654984
												CHANNELS 6 Xposition Yposition Zposition Zrotation Yrotation Xrotation
												JOINT LeftHandMiddle4
												{
													OFFSET 0.000000 0.000000 2.741241
													CHANNELS 6 Xposition Yposition Zposition Zrotation Yrotation Xrotation
													End Site
													{
														OFFSET 0.000000 0.000000 0.100006
													}
												}
											}
										}
									}
									JOINT LeftHandRing1
									{
										OFFSET -0.086754 2.267441 8.921707
										CHANNELS 6 Xposition Yposition Zposition Zrotation Yrotation Xrotation
										JOINT LeftHandRing2
										{
											OFFSET 0.000000 0.000000 4.061096
											CHANNELS 6 Xposition Yposition Zposition Zrotation Yrotation Xrotation
											JOINT LeftHandRing3
											{
												OFFSET 0.000000 0.000000 3.654984
												CHANNELS 6 Xposition Yposition Zposition Zrotation Yrotation Xrotation
												JOINT LeftHandRing4
												{
													OFFSET 0.000000 0.000000 2.741241
													CHANNELS 6 Xposition Yposition Zposition Zrotation Yrotation Xrotation
													End Site
													{
														OFFSET 0.000000 0.000000 0.100006
													}
												}
											}
										}
									}
									JOINT LeftHandPinky1
									{
										OFFSET 0.173504 4.467197 7.976990
										CHANNELS 6 Xposition Yposition Zposition Zrotation Yrotation Xrotation
										JOINT LeftHandPinky2
										{
											OFFSET 0.000000 0.000000 3.350403
											CHANNELS 6 Xposition Yposition Zposition Zrotation Yrotation Xrotation
											JOINT LeftHandPinky3
											{
												OFFSET 0.000000 0.000000 2.842758
												CHANNELS 6 Xposition Yposition Zposition Zrotation Yrotation Xrotation
												JOINT LeftHandPinky4
												{
													OFFSET 0.000000 0.000000 2.639709
													CHANNELS 6 Xposition Yposition Zposition Zrotation Yrotation Xrotation
													End Site
													{
														OFFSET 0.000000 0.000000 0.100006
													}
												}
											}
										}
									}
									JOINT LeftForeArmEnd
									{
										OFFSET 0.000000 0.000000 0.000000
										CHANNELS 6 Xposition Yposition Zposition Zrotation Yrotation Xrotation
										End Site
										{
											OFFSET 0.000000 0.000000 0.100006
										}
									}
								}
								JOINT LeftArmEnd
								{
									OFFSET 0.000000 0.000000 0.000000
									CHANNELS 6 Xposition Yposition Zposition Zrotation Yrotation Xrotation
									End Site
									{
										OFFSET 0.000000 0.000000 0.100006
									}
								}
							}
						}
					}
				}
			}
		}
	}
	JOINT RightUpLeg
	{
		OFFSET -11.289944 0.000000 0.000000
		CHANNELS 6 Xposition Yposition Zposition Zrotation Yrotation Xrotation
		JOINT RightLeg
		{
			OFFSET 0.000000 -0.000004 -38.200321
			CHANNELS 6 Xposition Yposition Zposition Zrotation Yrotation Xrotation
			JOINT RightFoot
			{
				OFFSET 0.000000 -0.000004 -39.900856
				CHANNELS 6 Xposition Yposition Zposition Zrotation Yrotation Xrotation
				JOINT RightToeBase
				{
					OFFSET 0.000000 -15.261639 0.000002
					CHANNELS 6 Xposition Yposition Zposition Zrotation Yrotation Xrotation
					JOINT RightToeBaseEnd
					{
						OFFSET 0.000000 -7.370712 0.000000
						CHANNELS 6 Xposition Yposition Zposition Zrotation Yrotation Xrotation
						End Site
						{
							OFFSET 0.000000 0.000000 0.100000
						}
					}
				}
				JOINT RightLegEnd
				{
					OFFSET 0.000000 0.000000 0.000000
					CHANNELS 6 Xposition Yposition Zposition Zrotation Yrotation Xrotation
					End Site
					{
						OFFSET 0.000000 0.000000 0.100000
					}
				}
			}
			JOINT RightUpLegEnd
			{
				OFFSET 0.000000 0.000000 0.000000
				CHANNELS 6 Xposition Yposition Zposition Zrotation Yrotation Xrotation
				End Site
				{
					OFFSET 0.000000 0.000000 0.099998
				}
			}
		}
	}
	JOINT LeftUpLeg
	{
		OFFSET 11.315662 0.000000 0.000000
		CHANNELS 6 Xposition Yposition Zposition Zrotation Yrotation Xrotation
		JOINT LeftLeg
		{
			OFFSET 0.000000 -0.000004 -38.200321
			CHANNELS 6 Xposition Yposition Zposition Zrotation Yrotation Xrotation
			JOINT LeftFoot
			{
				OFFSET 0.000000 -0.000004 -39.900856
				CHANNELS 6 Xposition Yposition Zposition Zrotation Yrotation Xrotation
				JOINT LeftToeBase
				{
					OFFSET 0.000000 -15.261639 0.000002
					CHANNELS 6 Xposition Yposition Zposition Zrotation Yrotation Xrotation
					JOINT LeftToeBaseEnd
					{
						OFFSET 0.000000 -7.539993 0.000000
						CHANNELS 6 Xposition Yposition Zposition Zrotation Yrotation Xrotation
						End Site
						{
							OFFSET 0.000000 0.000000 0.100000
						}
					}
				}
				JOINT LeftLegEnd
				{
					OFFSET 0.000000 0.000000 0.000000
					CHANNELS 6 Xposition Yposition Zposition Zrotation Yrotation Xrotation
					End Site
					{
						OFFSET 0.000000 0.000000 0.100000
					}
				}
			}
			JOINT LeftUpLegEnd
			{
				OFFSET 0.000000 0.000000 0.000000
				CHANNELS 6 Xposition Yposition Zposition Zrotation Yrotation Xrotation
				End Site
				{
					OFFSET 0.000000 0.000000 0.099998
				}
			}
		}
	}
}
MOTION
Frames: 2
Frame Time: 0.016667
-30.064167 -41.493698 84.987144 20.342989 9.317490 -11.632449 -0.000000 2.080111 8.814251 -1.246445 -6.680125 6.591697 -0.000001 -0.000004 8.844119 -1.293364 -4.162114 5.519560 0.000003 0.000003 11.682278 -1.900739 -2.138339 8.999193 0.000004 0.000005 11.746703 -0.277881 0.775216 1.049456 -0.000005 0.000004 17.658293 -0.547406 -4.620176 9.462336 0.000004 0.000002 5.101534 -2.392198 5.185308 -7.825794 0.000002 0.000011 5.101532 3.038391 0.453973 -20.367038 -0.000000 0.000005 11.655060 -0.000001 0.000000 0.000000 -2.625394 -0.000005 11.175218 12.426220 -88.937587 -0.772148 -0.000004 -0.000004 10.434723 -29.181717 -36.956180 48.786931 0.000012 -0.000001 29.628422 26.155067 -2.380303 77.272683 -0.000010 0.000002 22.857595 41.557378 5.972050 5.309432 -2.867328 -2.944277 3.959557 32.430865 -26.206080 38.950223 0.000004 0.000000 3.350404 -32.457670 10.558203 -54.776492 0.000002 0.000019 3.756509 -21.577435 10.761476 -37.395146 -0.000000 0.000021 3.147340 -0.000000 -0.000001 -0.000002 -0.086753 -2.345279 10.030893 -72.976275 -70.675369 71.386002 0.000003 -0.000019 4.061100 -6.717778 -57.980540 12.987774 0.000021 -0.000007 3.248854 -7.217752 -57.980547 12.987746 0.000005 -0.000008 2.639708 -0.000000 -0.000002 -0.000000 0.104113 -0.006776 9.502939 -57.619886 -74.088455 60.047082 0.000015 -0.000003 4.568730 -2.020264 -57.040658 4.636067 0.000010 -0.000011 3.654982 -2.520277 -57.040651 4.636066 0.000008 -0.000010 2.741227 -0.000001 0.000000 -0.000001 0.086758 2.267451 8.921703 150.719981 -101.047123 -144.304904 0.000029 -0.000002 4.061088 1.735488 -55.801406 -5.163754 0.000009 -0.000002 3.654994 2.735497 -55.801450 -5.163778 0.000007 -0.000004 2.741223 -0.000000 -0.000003 0.000001 -0.173511 4.467202 7.976985 -166.485724 -103.555592 177.404233 -0.000005 -0.000004 3.350407 4.613098 -50.906281 -13.841594 -0.000009 0.000000 2.842777 6.613094 -50.906288 -13.841602 0.000004 -0.000007 2.639726 0.000000 0.000001 -0.000001 -0.000001 -0.000002 -0.000000 -0.000001 0.000000 0.000000 -0.000007 0.000006 -0.000002 0.000002 -0.000001 0.000002 2.625386 0.000001 11.175215 -12.870470 87.376568 -1.109905 0.000032 0.000008 10.813627 49.585117 41.702953 60.700506 -0.000020 -0.000014 28.724785 -23.188101 2.896866 82.996559 0.644374 0.328863 25.716166 -64.791632 -5.833891 0.717477 2.867329 -2.944288 3.959574 -31.788042 23.322024 42.844257 -0.000013 0.000015 3.350386 26.178937 -11.072149 -44.741752 -0.000003 0.000014 3.756523 17.287791 -9.935995 -30.477629 0.000011 -0.000015 3.100007 -0.000002 0.000000 -0.000001 0.086763 -2.345271 10.030901 -177.919789 114.683015 -188.945381 0.000015 0.000000 4.061098 -3.161294 46.484847 -8.512231 0.000005 0.000003 3.248889 -3.661305 46.484864 -8.512224 -0.000003 0.000005 2.639740 0.000000 -0.000000 0.000000 -0.104093 -0.006767 9.502961 15.840098 67.912701 6.860219 -0.000020 -0.000010 4.568762 -1.032450 48.526052 -3.399085 0.000005 0.000002 3.655001 -1.532463 48.526069 -3.399086 -0.000001 0.000000 2.741273 -0.000000 0.000000 -0.000001 -0.086741 2.267446 8.921710 53.644395 72.106758 52.629005 0.000006 0.000011 4.061106 1.670495 55.391844 5.084998 -0.000004 -0.000012 3.654962 2.670528 55.392059 5.085039 0.000004 0.000000 2.741211 0.000003 0.000000 0.000000 0.173527 4.467182 7.976993 72.389159 66.157513 83.792494 -0.000008 -0.000005 3.350413 8.110226 58.009227 18.130561 -0.000011 -0.000004 2.842761 10.110178 58.008947 18.130472 -0.000004 0.000000 2.639692 0.000001 -0.000002 0.000001 -0.000003 -0.000005 0.000016 -0.000002 -0.000000 -0.000001 -0.000007 0.000006 0.000000 0.000000 0.000000 -0.000000 -11.289937 -0.000004 0.000005 2.093554 -17.236756 10.155960 0.000003 -0.000011 -38.200329 -0.045956 0.010869 12.439320 -0.000006 -0.000001 -39.900860 -13.405704 11.735724 13.755445 0.000006 -15.261639 -0.000003 -0.963966 -0.415921 -29.466607 -0.000003 -7.370719 -0.000002 -0.000000 -0.000001 -0.000000 -0.000000 -0.000001 -0.000002 0.000000 -0.000001 0.000000 0.000001 0.000000 -0.000005 -0.000000 -0.000000 0.000001 11.315664 -0.000007 0.000003 -9.708989 -21.205113 -5.055180 0.000000 -0.000008 -38.200314 0.499354 -0.636484 51.883148 -0.000001 -0.000003 -39.900848 9.387668 0.522658 16.888259 0.000004 -15.261645 0.000006 -0.802459 5.059808 -36.056200 0.000001 -7.539987 0.000000 0.000001 -0.000001 -0.000000 -0.000001 0.000000 -0.000001 -0.000001 0.000001 -0.000001 0.000000 0.000002 0.000009 -0.000001 -0.000001 0.000003 
-29.872555 -41.620087 85.036301 20.001782 9.123616 -11.331986 -0.000000 2.080107 8.814264 -1.290609 -6.723522 6.704024 0.000001 0.000000 8.844118 -1.243369 -3.966896 5.534063 -0.000001 0.000004 11.682263 -1.749366 -1.974394 8.397968 0.000006 0.000005 11.746707 -0.268599 0.777223 1.049684 -0.000006 -0.000002 17.658302 -0.513266 -4.606631 9.002175 0.000002 0.000003 5.101526 -2.383368 5.155875 -8.036360 0.000003 0.000005 5.101529 3.101281 0.344921 -19.998055 -0.000001 -0.000001 11.655105 -0.000000 -0.000001 0.000001 -2.625401 -0.000005 11.175227 12.563248 -88.508815 -0.806923 0.000003 0.000006 10.434725 -32.525094 -33.519027 48.305256 -0.000004 0.000010 29.628445 24.182596 -2.184359 75.553613 0.000008 -0.000005 22.857611 43.966833 5.186446 4.769263 -2.867325 -2.944292 3.959551 32.544564 -26.594182 38.430876 0.000005 0.000000 3.350409 -33.283724 10.408525 -56.106360 0.000007 -0.000019 3.756525 -22.156804 10.832776 -38.322832 -0.000001 0.000003 3.147355 0.000001 -0.000000 -0.000002 -0.086741 -2.345298 10.030912 -81.059599 -71.290721 77.890466 0.000020 0.000005 4.061105 -7.497486 -59.669284 13.898995 0.000013 -0.000012 3.248862 -7.997510 -59.669291 13.899020 -0.000005 -0.000004 2.639711 0.000000 0.000001 -0.000001 0.104123 -0.006780 9.502947 -65.540180 -75.203477 66.497909 0.000012 0.000003 4.568725 -2.271712 -58.639817 4.933079 0.000007 0.000012 3.654977 -2.771716 -58.639810 4.933032 0.000004 -0.000002 2.741208 0.000000 -0.000002 0.000001 0.086767 2.267436 8.921709 144.749030 -99.419175 -139.959974 0.000028 0.000006 4.061095 1.976213 -57.231026 -5.452401 0.000035 0.000018 3.654988 2.976224 -57.231019 -5.452374 0.000005 0.000002 2.741240 -0.000001 -0.000001 0.000001 -0.173522 4.467179 7.976993 -165.056412 -102.215557 174.265761 -0.000012 0.000001 3.350385 5.079724 -52.059941 -14.437978 -0.000003 -0.000004 2.842772 7.079748 -52.059917 -14.437970 0.000004 0.000001 2.639713 0.000001 0.000004 -0.000000 -0.000002 -0.000008 -0.000017 -0.000001 -0.000002 -0.000000 0.000011 -0.000012 0.000014 0.000001 -0.000001 0.000001 2.625391 -0.000001 11.175215 -13.054302 86.569465 -1.131059 -0.000001 0.000006 10.813650 51.494265 39.262902 60.371987 -0.000002 -0.000026 28.724802 -22.432324 2.876035 80.319773 0.644384 0.328875 25.716158 -66.421438 -5.512110 0.023724 2.867304 -2.944286 3.959574 -31.819553 23.512472 42.584399 0.000010 0.000008 3.350389 26.599738 -11.071615 -45.412316 -0.000003 0.000014 3.756520 17.569987 -10.006761 -30.936095 0.000001 0.000005 3.099993 0.000002 0.000004 0.000001 0.086774 -2.345277 10.030899 -177.756971 114.370835 -189.708832 0.000000 0.000010 4.061120 -3.228069 46.789378 -8.604054 0.000009 0.000008 3.248888 -3.728056 46.789473 -8.604055 -0.000001 0.000006 2.639726 0.000001 0.000001 -0.000001 -0.104099 -0.006763 9.502928 15.988909 68.042720 6.052503 0.000022 -0.000002 4.568736 -1.044899 48.663687 -3.415618 0.000005 0.000012 3.655005 -1.544858 48.663715 -3.415612 0.000009 -0.000004 2.741227 0.000002 0.000000 -0.000001 -0.086769 2.267449 8.921715 53.136222 71.996942 50.929818 0.000015 -0.000001 4.061097 1.639542 55.192925 5.047307 -0.000004 0.000003 3.655009 2.639511 55.192938 5.047323 0.000007 0.000003 2.741241 -0.000001 -0.000001 -0.000001 0.173506 4.467192 7.976988 71.597007 66.000548 81.823733 -0.000014 -0.000009 3.350402 7.863141 57.603589 17.838601 0.000007 0.000004 2.842769 9.863135 57.603541 17.838598 0.000001 -0.000002 2.639724 -0.000002 -0.000002 -0.000001 -0.000016 0.000003 0.000033 0.000002 0.000001 -0.000003 0.000006 0.000004 0.000002 -0.000002 0.000001 -0.000002 -11.289945 -0.000009 0.000008 2.570517 -17.000493 9.726546 -0.000001 -0.000006 -38.200325 -0.056857 0.013172 12.732191 0.000000 -0.000000 -39.900852 -13.348952 11.604475 13.660235 -0.000001 -15.261642 -0.000000 -0.988799 -0.428326 -29.507872 -0.000003 -7.370704 -0.000001 -0.000001 -0.000000 0.000000 0.000001 -0.000000 -0.000003 0.000000 -0.000001 -0.000000 0.000002 0.000001 -0.000004 0.000002 -0.000000 0.000000 11.315657 -0.000005 0.000022 -9.833383 -20.597870 -5.739678 0.000002 -0.000005 -38.200317 0.571411 -0.697543 50.675144 -0.000002 -0.000014 -39.900860 8.425194 1.683750 15.709676 -0.000002 -15.261644 0.000010 -0.311538 3.859270 -34.517560 0.000000 -7.539985 -0.000002 -0.000001 -0.000002 -0.000000 -0.000000 0.000005 0.000001 -0.000001 -0.000001 -0.000003 0.000001 -0.000008 -0.000005 -0.000000 -0.000000 0.000001 
